<svg width="20" height="20" viewBox="0 0 20 20" fill="none" xmlns="http://www.w3.org/2000/svg">
<path fill-rule="evenodd" clip-rule="evenodd" d="M9.48834 5.32135C9.78123 5.02845 9.78123 4.55358 9.48834 4.26069C9.19544 3.96779 8.72057 3.96779 8.42768 4.26069L3.42819 9.26018C3.42802 9.26035 3.42785 9.26052 3.42768 9.26069C3.35577 9.33259 3.30152 9.41547 3.26492 9.50393C3.22825 9.59236 3.20801 9.68932 3.20801 9.79102C3.20801 9.89271 3.22825 9.98967 3.26492 10.0781C3.26658 10.0821 3.26827 10.0861 3.27 10.0901C3.30647 10.1741 3.35903 10.2527 3.42768 10.3213L8.42768 15.3213C8.72057 15.6142 9.19544 15.6142 9.48834 15.3213C9.78123 15.0285 9.78123 14.5536 9.48834 14.2607L5.76867 10.541H15.6247C16.0389 10.541 16.3747 10.2052 16.3747 9.79102C16.3747 9.3768 16.0389 9.04102 15.6247 9.04102H5.76867L9.48834 5.32135Z" fill=""/>
</svg>
