<svg width="24" height="24" viewBox="0 0 24 24" fill="none" xmlns="http://www.w3.org/2000/svg">
<path fill-rule="evenodd" clip-rule="evenodd" d="M12 21C16.9706 21 21 16.9706 21 12C21 7.02944 16.9706 3 12 3C7.02944 3 3 7.02944 3 12C3 16.9706 7.02944 21 12 21ZM10 12C10 11.4477 10.4477 11 11 11H12C12.5523 11 13 11.4477 13 12V16C13.5523 16 14 16.4477 14 17C14 17.5523 13.5523 18 13 18H12C11.4477 18 11 17.5523 11 17V13C10.4477 13 10 12.5523 10 12ZM12 7C11.4477 7 11 7.44772 11 8C11 8.55228 11.4477 9 12 9H12.01C12.5623 9 13.01 8.55228 13.01 8C13.01 7.44772 12.5623 7 12.01 7H12Z" fill="white"/>
</svg>
