<svg width="32" height="32" viewBox="0 0 32 32" fill="none" xmlns="http://www.w3.org/2000/svg">
  <path
    d="M24.7467 14.8051C24.7467 17.1494 25.764 19.3622 27.5381 20.8762C28.0051 21.2801 28.2667 21.8535 28.2667 22.46C28.2667 23.6031 27.3456 24.533 26.2134 24.533H6.85338C5.72112 24.533 4.80005 23.6031 4.80005 22.46C4.80005 21.8535 5.0617 21.2801 5.51813 20.8856C7.30277 19.3622 8.32005 17.1494 8.32005 14.8051V11.5024C8.32005 7.33373 11.386 3.88298 15.36 3.30489C16.335 3.16317 16.7531 3.16613 17.7067 3.30489C21.6796 3.88298 24.7467 7.33373 24.7467 11.5024V14.8051Z"
    fill="#1A1A1A"
  />
  <path
    d="M16.5333 28.7996C18.6364 28.7996 20.3958 27.4225 20.7999 25.5996H12.2666C12.6707 27.4225 14.4301 28.7996 16.5333 28.7996Z"
    fill="#1A1A1A"
  />
</svg>
