<svg width="24" height="24" viewBox="0 0 24 24" fill="none" xmlns="http://www.w3.org/2000/svg">
<path d="M20.83 18.0165L13.2525 4.7077C12.7154 3.7641 11.2846 3.7641 10.7471 4.7077L3.17003 18.0165C3.05342 18.2214 2.99495 18.4513 3.00034 18.6839C3.00573 18.9165 3.0748 19.1438 3.20079 19.3436C3.32679 19.5434 3.50541 19.7089 3.71922 19.824C3.93303 19.939 4.17473 19.9997 4.42072 20H19.5771C19.8232 20 20.0652 19.9396 20.2793 19.8248C20.4935 19.7099 20.6724 19.5444 20.7986 19.3445C20.9249 19.1446 20.9942 18.9172 20.9996 18.6844C21.0051 18.4516 20.9467 18.2215 20.83 18.0165ZM12 17.9396C11.8241 17.9396 11.6522 17.8902 11.506 17.7978C11.3597 17.7054 11.2458 17.5741 11.1785 17.4204C11.1112 17.2667 11.0936 17.0976 11.1279 16.9345C11.1622 16.7713 11.2469 16.6215 11.3712 16.5039C11.4956 16.3863 11.654 16.3062 11.8265 16.2737C11.999 16.2413 12.1778 16.2579 12.3403 16.3216C12.5028 16.3852 12.6417 16.493 12.7394 16.6313C12.8371 16.7696 12.8892 16.9322 12.8892 17.0986C12.8892 17.3216 12.7955 17.5355 12.6288 17.6932C12.462 17.8509 12.2358 17.9396 12 17.9396ZM12.9657 9.48121L12.7105 14.6113C12.7105 14.7897 12.6355 14.9609 12.5021 15.087C12.3687 15.2132 12.1878 15.2841 11.9991 15.2841C11.8104 15.2841 11.6295 15.2132 11.4961 15.087C11.3627 14.9609 11.2877 14.7897 11.2877 14.6113L11.0325 9.48331C11.0268 9.36077 11.0472 9.2384 11.0925 9.12348C11.1379 9.00856 11.2072 8.90345 11.2964 8.81441C11.3856 8.72538 11.4929 8.65424 11.6118 8.60524C11.7306 8.55624 11.8588 8.53038 11.9884 8.5292H11.9978C12.1283 8.52913 12.2576 8.55409 12.3777 8.60256C12.4978 8.65103 12.6062 8.72201 12.6965 8.81121C12.7868 8.90042 12.857 9.006 12.903 9.12158C12.949 9.23717 12.9697 9.36036 12.9639 9.48373L12.9657 9.48121Z" fill="white"/>
</svg>
