<svg width="324" height="324" viewBox="0 0 64 64" fill="none" xmlns="http://www.w3.org/2000/svg">
  <rect width="64" height="64" rx="8" fill="#1A1A1A" />
  <path
    d="M42.3813 22.25C39.9012 22.25 37.8877 24.2676 37.8877 26.7576C37.8877 30.056 35.2268 32.7273 31.9413 32.7273C28.6563 32.7273 25.9959 30.0533 25.9949 26.7595C25.9949 26.7584 25.994 26.7576 25.993 26.7576C25.9919 26.7576 25.9911 26.7567 25.9911 26.7557C25.9901 24.2666 23.9807 22.25 21.4974 22.25C19.0302 22.25 17.0211 24.2466 17.0002 26.7185C16.9999 26.7444 17.0019 26.7704 17.0057 26.796C17.0094 26.8207 17.0113 26.8459 17.0115 26.8709C17.073 35.0978 23.7305 41.75 31.9375 41.75C40.1872 41.75 46.875 35.0397 46.875 26.7576C46.875 24.2676 44.8615 22.25 42.3813 22.25Z"
    fill="#FCAD10"
  />
</svg>
